<?xml version="1.0" encoding="UTF-8"?>
<!DOCTYPE svg PUBLIC "-//W3C//DTD SVG 1.1//EN" "http://www.w3.org/Graphics/SVG/1.1/DTD/svg11.dtd">
<!-- Creator: CorelDRAW -->
<svg xmlns="http://www.w3.org/2000/svg" xml:space="preserve" width="215.9mm" height="279.4mm" style="shape-rendering:geometricPrecision; text-rendering:geometricPrecision; image-rendering:optimizeQuality; fill-rule:evenodd; clip-rule:evenodd"
viewBox="0 0 215.9 279.4">
 <defs>
  <style type="text/css">
   <![CDATA[
    .fil3 {fill:navy}
    .fil4 {fill:#334C9E}
    .fil5 {fill:#592600}
    .fil6 {fill:#5C70B0}
    .fil0 {fill:#99A6CF}
    .fil2 {fill:#EDF2FF}
    .fil1 {fill:#FF0033}
   ]]>
  </style>
 </defs>
 <g id="Layer_x0020_1">
  <metadata id="CorelCorpID_0Corel-Layer"/>
  <g id="_138162480">
   <polygon id="_139148664" class="fil0" points="207.578,193.587 207.631,236.69 157.324,236.845 157.579,156.508 178.927,171.115 208.702,191.339 207.578,193.587 "/>
   <polygon id="_139148592" class="fil1" points="159.265,162.126 207.578,193.587 214.321,193.587 158.703,153.7 159.265,162.126 "/>
   <polygon id="_139148520" class="fil1" points="33.4225,58.1944 33.4225,93.0248 51.9614,75.0477 51.9614,58.1944 33.4225,58.1944 "/>
   <polygon id="_139148448" class="fil0" points="17.6916,115.497 17.6916,236.845 162.634,236.845 162.634,116.059 91.8486,41.3398 17.6916,115.497 "/>
   <polygon id="_139148232" class="fil2" points="34.5462,122.801 57.5787,122.801 57.5787,148.081 34.5462,148.081 34.5462,122.801 "/>
   <polygon id="_139148160" class="fil3" points="42.411,126.171 42.411,146.395 42.9729,146.395 42.9729,125.609 42.411,126.171 "/>
   <polygon id="_139148088" class="fil3" points="48.5902,126.171 48.5902,146.395 49.1521,146.395 49.1521,125.609 48.5902,126.171 "/>
   <polygon id="_139148016" class="fil3" points="36.2305,132.913 56.455,132.913 56.455,132.352 35.6686,132.352 36.2305,132.913 "/>
   <polygon id="_139147944" class="fil3" points="35.6686,140.216 56.455,140.216 56.455,138.531 35.6686,138.531 35.6686,140.216 "/>
   <polygon id="_139147872" class="fil1" points="34.5462,122.801 57.5787,122.801 57.5787,148.081 34.5462,148.081 34.5462,145.834 54.2089,145.834 54.2089,126.171 34.5462,126.171 34.5462,122.801 "/>
   <polygon id="_139147800" class="fil1" points="34.5462,122.801 34.5462,148.081 37.3542,146.395 37.3542,126.171 34.5462,122.801 "/>
   <polygon id="_139147728" class="fil4" points="57.5787,122.801 57.5787,148.081 66.0068,148.081 66.0068,122.801 57.5787,122.801 "/>
   <polygon id="_139147656" class="fil4" points="26.1182,122.801 26.1182,148.081 34.5462,148.081 34.5462,122.801 26.1182,122.801 "/>
   <polygon id="_139147584" class="fil2" points="81.1745,122.801 103.647,122.801 103.647,148.081 81.1745,148.081 81.1745,122.801 "/>
   <polygon id="_139147512" class="fil3" points="88.4774,126.171 88.4774,146.395 89.0393,146.395 89.0393,125.609 88.4774,126.171 "/>
   <polygon id="_139147440" class="fil3" points="94.6579,126.171 94.6579,146.395 95.2198,146.395 95.2198,125.609 94.6579,126.171 "/>
   <polygon id="_139147368" class="fil3" points="81.7363,132.913 102.523,132.913 102.523,132.352 81.7363,132.352 81.7363,132.913 "/>
   <polygon id="_139147296" class="fil3" points="81.7363,140.216 102.523,140.216 102.523,138.531 81.7363,138.531 81.7363,140.216 "/>
   <polygon id="_139147224" class="fil1" points="81.1745,122.801 103.647,122.801 103.647,148.081 81.1745,148.081 81.1745,145.834 101.399,145.834 101.399,126.171 80.0507,126.171 81.1745,122.801 "/>
   <polygon id="_139147152" class="fil1" points="81.1745,122.801 81.1745,148.081 83.4219,145.834 83.4219,126.171 81.1745,122.801 "/>
   <polygon id="_139147080" class="fil4" points="103.647,122.801 103.647,148.081 112.635,148.081 112.635,122.801 103.647,122.801 "/>
   <polygon id="_139147008" class="fil4" points="72.1859,122.801 72.1859,148.081 81.1745,148.081 81.1745,122.801 72.1859,122.801 "/>
   <polygon id="_139146936" class="fil2" points="123.309,123.362 146.343,123.362 146.343,148.643 124.433,148.643 123.309,123.362 "/>
   <polygon id="_139146864" class="fil3" points="131.174,126.171 131.174,146.957 132.86,146.957 132.86,126.171 131.174,126.171 "/>
   <polygon id="_139146792" class="fil3" points="138.478,126.171 138.478,146.957 138.478,146.957 138.478,125.609 138.478,126.171 "/>
   <polygon id="_138977008" class="fil3" points="124.995,132.913 144.657,132.913 144.657,132.352 124.433,132.352 124.995,132.913 "/>
   <polygon id="_138976936" class="fil3" points="124.995,140.216 144.657,140.216 144.657,139.093 124.433,139.093 124.995,140.216 "/>
   <polygon id="_138976864" class="fil1" points="123.309,123.362 146.343,123.362 146.343,148.643 124.433,148.643 124.433,146.395 144.096,146.395 144.096,126.733 123.309,126.733 123.309,123.362 "/>
   <polygon id="_138976792" class="fil1" points="123.309,123.362 124.433,148.643 127.242,146.395 127.242,126.171 123.309,123.362 "/>
   <polygon id="_138976720" class="fil4" points="146.343,123.362 146.343,148.643 154.77,148.643 154.77,123.362 146.343,123.362 "/>
   <polygon id="_138976648" class="fil4" points="115.444,123.362 115.444,148.643 124.433,148.643 124.433,123.362 115.444,123.362 "/>
   <polygon id="_138976576" class="fil2" points="34.5462,186.284 57.5787,186.284 57.5787,211.564 34.5462,211.564 34.5462,186.284 "/>
   <polygon id="_138976504" class="fil3" points="42.411,188.53 42.411,209.317 42.9729,209.317 42.9729,188.53 42.411,188.53 "/>
   <polygon id="_138976432" class="fil3" points="49.1521,188.53 49.1521,209.317 49.714,209.317 49.714,188.53 49.1521,188.53 "/>
   <polygon id="_138976360" class="fil3" points="36.2305,196.396 56.455,196.396 56.455,194.711 35.6686,194.711 36.2305,196.396 "/>
   <polygon id="_138976288" class="fil3" points="36.2305,202.575 56.455,202.575 56.455,202.014 35.6686,202.014 36.2305,202.575 "/>
   <polygon id="_138976216" class="fil1" points="34.5462,186.284 57.5787,186.284 57.5787,211.564 34.5462,211.564 34.5462,208.755 54.7708,208.755 54.7708,189.092 34.5462,189.092 34.5462,186.284 "/>
   <polygon id="_138976144" class="fil1" points="34.5462,186.284 34.5462,211.564 37.9161,208.755 37.9161,188.53 34.5462,186.284 "/>
   <polygon id="_138976072" class="fil4" points="57.5787,186.284 57.5787,211.564 66.5686,211.564 66.5686,186.284 57.5787,186.284 "/>
   <polygon id="_138976000" class="fil4" points="26.1182,186.284 26.1182,211.564 34.5462,211.564 34.5462,186.284 26.1182,186.284 "/>
   <polygon id="_138975928" class="fil2" points="123.309,186.284 146.343,186.284 146.343,211.564 124.433,211.564 123.309,186.284 "/>
   <polygon id="_138975856" class="fil3" points="131.174,189.092 131.174,209.317 131.736,209.317 131.736,188.53 131.174,189.092 "/>
   <polygon id="_138975784" class="fil3" points="137.354,189.092 137.354,209.317 138.478,209.317 138.478,188.53 137.354,189.092 "/>
   <polygon id="_138975712" class="fil3" points="124.995,196.396 144.657,196.396 144.657,194.711 124.433,194.711 124.995,196.396 "/>
   <polygon id="_138975640" class="fil3" points="124.995,203.137 144.657,203.137 144.657,202.014 124.433,202.014 124.995,203.137 "/>
   <polygon id="_138975568" class="fil1" points="123.309,186.284 146.343,186.284 146.343,211.564 124.433,211.564 124.433,208.755 144.096,208.755 144.096,189.092 123.309,189.092 123.309,186.284 "/>
   <polygon id="_138975496" class="fil1" points="123.309,186.284 124.433,211.564 127.242,208.755 127.242,188.53 123.309,186.284 "/>
   <polygon id="_138975424" class="fil4" points="146.343,186.284 146.343,211.564 154.77,211.564 154.77,186.284 146.343,186.284 "/>
   <polygon id="_138975352" class="fil4" points="114.882,186.284 114.882,211.564 123.309,211.564 123.309,186.284 114.882,186.284 "/>
   <polygon id="_138975280" class="fil4" points="74.4334,236.845 74.4334,185.722 109.826,185.722 109.002,236.845 74.4334,236.845 "/>
   <polygon id="_138975208" class="fil5" points="76.6809,208.755 76.119,211.564 78.3651,211.564 78.3651,208.193 76.6809,208.755 "/>
   <polygon id="_138975136" class="fil2" points="83.4219,71.6765 100.275,71.6765 100.275,90.7787 83.4219,90.7787 83.4219,71.6765 "/>
   <polygon id="_138975064" class="fil3" points="89.0393,74.4859 89.0393,89.6549 89.6011,89.6549 89.6011,73.3621 89.0393,74.4859 "/>
   <polygon id="_135989680" class="fil3" points="94.0961,73.3621 94.0961,89.6549 94.6579,89.6549 94.6579,73.3621 94.0961,73.3621 "/>
   <polygon id="_137154896" class="fil3" points="83.9838,79.5427 99.7134,79.5427 99.7134,78.419 83.9838,78.419 83.9838,79.5427 "/>
   <polygon id="_138905840" class="fil3" points="83.9838,84.5981 99.7134,84.5981 99.7134,83.4744 83.9838,83.4744 83.9838,84.5981 "/>
   <polygon id="_138905768" class="fil1" points="83.4219,71.6765 85.6694,67.7448 90.163,65.4974 92.4105,64.9355 95.2198,66.0592 97.4673,67.7448 100.275,71.6765 100.275,90.7787 83.4219,90.7787 83.9838,88.5312 98.591,88.5312 98.591,74.4859 94.6579,74.4859 90.7249,74.4859 86.7931,74.4859 83.4219,74.4859 83.4219,71.6765 "/>
   <polygon id="_138905696" class="fil1" points="83.4219,71.6765 83.4219,90.7787 86.2313,88.5312 86.2313,73.3621 83.4219,71.6765 "/>
   <polygon id="_138905624" class="fil4" points="100.275,71.6765 100.275,90.7787 107.018,90.7787 107.018,71.6765 100.275,71.6765 "/>
   <polygon id="_138905552" class="fil4" points="77.2427,71.6765 77.2427,90.7787 83.4219,90.7787 83.4219,71.6765 77.2427,71.6765 "/>
   <polygon id="_138905480" class="fil4" points="17.6916,115.497 3.0857,116.621 91.8486,35.7224 173.309,116.059 162.634,116.059 91.8486,45.2728 17.6916,115.497 "/>
   <polygon id="_138905192" class="fil6" points="189.601,185.722 204.769,196.396 204.769,230.103 183.422,227.295 190.163,223.924 187.354,217.183 198.028,212.688 191.849,208.755 198.59,207.07 189.04,197.519 194.096,194.149 189.601,185.722 "/>
  </g>
 </g>
</svg>
